<svg id="visual" viewBox="0 0 900 600" width="900" height="600" xmlns="http://www.w3.org/2000/svg" xmlns:xlink="http://www.w3.org/1999/xlink" version="1.1"><path d="M0 49L15 45C30 41 60 33 90 33C120 33 150 41 180 42C210 43 240 37 270 34C300 31 330 31 360 36C390 41 420 51 450 54C480 57 510 53 540 48C570 43 600 37 630 37C660 37 690 43 720 45C750 47 780 45 810 45C840 45 870 47 885 48L900 49L900 0L885 0C870 0 840 0 810 0C780 0 750 0 720 0C690 0 660 0 630 0C600 0 570 0 540 0C510 0 480 0 450 0C420 0 390 0 360 0C330 0 300 0 270 0C240 0 210 0 180 0C150 0 120 0 90 0C60 0 30 0 15 0L0 0Z" fill="#72672c"></path><path d="M0 133L15 139C30 145 60 157 90 159C120 161 150 153 180 155C210 157 240 169 270 170C300 171 330 161 360 160C390 159 420 167 450 178C480 189 510 203 540 201C570 199 600 181 630 176C660 171 690 179 720 175C750 171 780 155 810 149C840 143 870 147 885 149L900 151L900 47L885 46C870 45 840 43 810 43C780 43 750 45 720 43C690 41 660 35 630 35C600 35 570 41 540 46C510 51 480 55 450 52C420 49 390 39 360 34C330 29 300 29 270 32C240 35 210 41 180 40C150 39 120 31 90 31C60 31 30 39 15 43L0 47Z" fill="#695f27"></path><path d="M0 163L15 172C30 181 60 199 90 202C120 205 150 193 180 193C210 193 240 205 270 205C300 205 330 193 360 190C390 187 420 193 450 206C480 219 510 239 540 238C570 237 600 215 630 209C660 203 690 213 720 208C750 203 780 183 810 177C840 171 870 179 885 183L900 187L900 149L885 147C870 145 840 141 810 147C780 153 750 169 720 173C690 177 660 169 630 174C600 179 570 197 540 199C510 201 480 187 450 176C420 165 390 157 360 158C330 159 300 169 270 168C240 167 210 155 180 153C150 151 120 159 90 157C60 155 30 143 15 137L0 131Z" fill="#615722"></path><path d="M0 307L15 311C30 315 60 323 90 324C120 325 150 319 180 311C210 303 240 293 270 291C300 289 330 295 360 308C390 321 420 341 450 345C480 349 510 337 540 320C570 303 600 281 630 283C660 285 690 311 720 318C750 325 780 313 810 309C840 305 870 309 885 311L900 313L900 185L885 181C870 177 840 169 810 175C780 181 750 201 720 206C690 211 660 201 630 207C600 213 570 235 540 236C510 237 480 217 450 204C420 191 390 185 360 188C330 191 300 203 270 203C240 203 210 191 180 191C150 191 120 203 90 200C60 197 30 179 15 170L0 161Z" fill="#58501e"></path><path d="M0 343L15 344C30 345 60 347 90 347C120 347 150 345 180 340C210 335 240 327 270 326C300 325 330 331 360 343C390 355 420 373 450 375C480 377 510 363 540 347C570 331 600 313 630 317C660 321 690 347 720 354C750 361 780 349 810 343C840 337 870 337 885 337L900 337L900 311L885 309C870 307 840 303 810 307C780 311 750 323 720 316C690 309 660 283 630 281C600 279 570 301 540 318C510 335 480 347 450 343C420 339 390 319 360 306C330 293 300 287 270 289C240 291 210 301 180 309C150 317 120 323 90 322C60 321 30 313 15 309L0 305Z" fill="#504819"></path><path d="M0 409L15 413C30 417 60 425 90 422C120 419 150 405 180 392C210 379 240 367 270 371C300 375 330 395 360 409C390 423 420 431 450 430C480 429 510 419 540 403C570 387 600 365 630 365C660 365 690 387 720 391C750 395 780 381 810 380C840 379 870 391 885 397L900 403L900 335L885 335C870 335 840 335 810 341C780 347 750 359 720 352C690 345 660 319 630 315C600 311 570 329 540 345C510 361 480 375 450 373C420 371 390 353 360 341C330 329 300 323 270 324C240 325 210 333 180 338C150 343 120 345 90 345C60 345 30 343 15 342L0 341Z" fill="#484114"></path><path d="M0 433L15 437C30 441 60 449 90 446C120 443 150 429 180 418C210 407 240 399 270 403C300 407 330 423 360 434C390 445 420 451 450 450C480 449 510 441 540 426C570 411 600 389 630 391C660 393 690 419 720 423C750 427 780 409 810 406C840 403 870 415 885 421L900 427L900 401L885 395C870 389 840 377 810 378C780 379 750 393 720 389C690 385 660 363 630 363C600 363 570 385 540 401C510 417 480 427 450 428C420 429 390 421 360 407C330 393 300 373 270 369C240 365 210 377 180 390C150 403 120 417 90 420C60 423 30 415 15 411L0 407Z" fill="#423c12"></path><path d="M0 457L15 461C30 465 60 473 90 468C120 463 150 445 180 432C210 419 240 411 270 415C300 419 330 435 360 446C390 457 420 463 450 463C480 463 510 457 540 444C570 431 600 411 630 413C660 415 690 439 720 444C750 449 780 435 810 431C840 427 870 433 885 436L900 439L900 425L885 419C870 413 840 401 810 404C780 407 750 425 720 421C690 417 660 391 630 389C600 387 570 409 540 424C510 439 480 447 450 448C420 449 390 443 360 432C330 421 300 405 270 401C240 397 210 405 180 416C150 427 120 441 90 444C60 447 30 439 15 435L0 431Z" fill="#3f3912"></path><path d="M0 493L15 495C30 497 60 501 90 497C120 493 150 481 180 470C210 459 240 449 270 449C300 449 330 459 360 467C390 475 420 481 450 483C480 485 510 483 540 473C570 463 600 445 630 448C660 451 690 475 720 478C750 481 780 463 810 456C840 449 870 453 885 455L900 457L900 437L885 434C870 431 840 425 810 429C780 433 750 447 720 442C690 437 660 413 630 411C600 409 570 429 540 442C510 455 480 461 450 461C420 461 390 455 360 444C330 433 300 417 270 413C240 409 210 417 180 430C150 443 120 461 90 466C60 471 30 463 15 459L0 455Z" fill="#3c3611"></path><path d="M0 547L15 549C30 551 60 555 90 551C120 547 150 535 180 530C210 525 240 527 270 528C300 529 330 529 360 532C390 535 420 541 450 545C480 549 510 551 540 546C570 541 600 529 630 528C660 527 690 537 720 539C750 541 780 535 810 536C840 537 870 545 885 549L900 553L900 455L885 453C870 451 840 447 810 454C780 461 750 479 720 476C690 473 660 449 630 446C600 443 570 461 540 471C510 481 480 483 450 481C420 479 390 473 360 465C330 457 300 447 270 447C240 447 210 457 180 468C150 479 120 491 90 495C60 499 30 495 15 493L0 491Z" fill="#383311"></path><path d="M0 577L15 576C30 575 60 573 90 569C120 565 150 559 180 554C210 549 240 545 270 544C300 543 330 545 360 548C390 551 420 555 450 558C480 561 510 563 540 561C570 559 600 553 630 554C660 555 690 563 720 562C750 561 780 551 810 551C840 551 870 561 885 566L900 571L900 551L885 547C870 543 840 535 810 534C780 533 750 539 720 537C690 535 660 525 630 526C600 527 570 539 540 544C510 549 480 547 450 543C420 539 390 533 360 530C330 527 300 527 270 526C240 525 210 523 180 528C150 533 120 545 90 549C60 553 30 549 15 547L0 545Z" fill="#353010"></path><path d="M0 601L15 601C30 601 60 601 90 601C120 601 150 601 180 601C210 601 240 601 270 601C300 601 330 601 360 601C390 601 420 601 450 601C480 601 510 601 540 601C570 601 600 601 630 601C660 601 690 601 720 601C750 601 780 601 810 601C840 601 870 601 885 601L900 601L900 569L885 564C870 559 840 549 810 549C780 549 750 559 720 560C690 561 660 553 630 552C600 551 570 557 540 559C510 561 480 559 450 556C420 553 390 549 360 546C330 543 300 541 270 542C240 543 210 547 180 552C150 557 120 563 90 567C60 571 30 573 15 574L0 575Z" fill="#322d10"></path></svg>